<svg width="259" height="44" viewBox="0 0 259 44" fill="none" xmlns="http://www.w3.org/2000/svg">
<g clip-path="url(#clip0_284_2)">
<path d="M17.5632 16.3842C17.4666 15.4103 17.0521 14.6536 16.3196 14.1143C15.5871 13.575 14.593 13.3054 13.3374 13.3054C12.4841 13.3054 11.7637 13.4261 11.1761 13.6676C10.5885 13.901 10.1378 14.227 9.82386 14.6456C9.51799 15.0642 9.36506 15.5391 9.36506 16.0703C9.34896 16.513 9.44152 16.8994 9.64276 17.2294C9.85204 17.5594 10.1378 17.8452 10.5 18.0866C10.8622 18.3201 11.2808 18.5253 11.7557 18.7024C12.2306 18.8714 12.7377 19.0163 13.277 19.1371L15.4986 19.6683C16.5772 19.9098 17.5672 20.2318 18.4688 20.6342C19.3703 21.0367 20.151 21.5317 20.8111 22.1193C21.4711 22.7069 21.9822 23.3991 22.3445 24.196C22.7147 24.9929 22.9039 25.9065 22.9119 26.9368C22.9039 28.45 22.5175 29.7621 21.7528 30.8729C20.9962 31.9756 19.9015 32.8329 18.4688 33.4446C17.044 34.0483 15.3255 34.3501 13.3132 34.3501C11.317 34.3501 9.57836 34.0443 8.0973 33.4325C6.62429 32.8208 5.47325 31.9152 4.64418 30.7159C3.82315 29.5085 3.39252 28.0154 3.35227 26.2365H8.41122C8.46757 27.0656 8.70502 27.7578 9.12358 28.3132C9.55019 28.8606 10.1177 29.2751 10.826 29.5568C11.5424 29.8305 12.3513 29.9673 13.2528 29.9673C14.1383 29.9673 14.907 29.8385 15.5589 29.581C16.219 29.3234 16.7301 28.9652 17.0923 28.5064C17.4545 28.0476 17.6357 27.5204 17.6357 26.9247C17.6357 26.3693 17.4706 25.9025 17.1406 25.5241C16.8187 25.1458 16.3438 24.8239 15.7159 24.5582C15.0961 24.2926 14.3355 24.0511 13.4339 23.8338L10.7415 23.1577C8.65672 22.6506 7.01065 21.8577 5.80327 20.7791C4.59588 19.7005 3.99621 18.2476 4.00426 16.4205C3.99621 14.9233 4.39465 13.6153 5.19957 12.4964C6.01255 11.3776 7.12737 10.5043 8.54403 9.87642C9.9607 9.24858 11.5705 8.93466 13.3736 8.93466C15.2088 8.93466 16.8106 9.24858 18.179 9.87642C19.5554 10.5043 20.6259 11.3776 21.3906 12.4964C22.1553 13.6153 22.5497 14.9112 22.5739 16.3842H17.5632ZM27.4061 34H21.8038L30.34 9.27273H37.0772L45.6014 34H39.9991L33.8052 14.9233H33.612L27.4061 34ZM27.0559 24.2805H40.2889V28.3615H27.0559V24.2805ZM45.8576 9.27273H52.305L59.1147 25.8864H59.4045L66.2141 9.27273H72.6616V34H67.5905V17.9055H67.3853L60.9861 33.8793H57.533L51.1339 17.8452H50.9286V34H45.8576V9.27273ZM74.2489 34V9.27273H84.0046C85.8801 9.27273 87.4778 9.63092 88.7979 10.3473C90.118 11.0556 91.1241 12.0417 91.8164 13.3054C92.5167 14.5611 92.8668 16.0099 92.8668 17.652C92.8668 19.294 92.5126 20.7429 91.8043 21.9986C91.096 23.2543 90.0697 24.2322 88.7255 24.9325C87.3893 25.6328 85.7714 25.983 83.8718 25.983H77.6537V21.7933H83.0266C84.0328 21.7933 84.8618 21.6203 85.5138 21.2741C86.1739 20.92 86.6649 20.433 86.9868 19.8132C87.3169 19.1854 87.4819 18.465 87.4819 17.652C87.4819 16.831 87.3169 16.1146 86.9868 15.5028C86.6649 14.883 86.1739 14.4041 85.5138 14.0661C84.8538 13.7199 84.0167 13.5469 83.0025 13.5469H79.4769V34H74.2489ZM93.5426 34V9.27273H98.7706V29.6896H109.371V34H93.5426ZM110.114 34V9.27273H126.776V13.5831H115.342V19.4751H125.918V23.7855H115.342V29.6896H126.824V34H110.114Z" fill="black"/>
<path d="M142.58 15.4545C142.435 14.2311 141.847 13.2812 140.817 12.6051C139.787 11.929 138.523 11.5909 137.026 11.5909C135.931 11.5909 134.973 11.768 134.152 12.1222C133.339 12.4763 132.703 12.9633 132.245 13.5831C131.794 14.2029 131.568 14.9072 131.568 15.696C131.568 16.3561 131.725 16.9235 132.039 17.3984C132.361 17.8653 132.772 18.2557 133.271 18.5696C133.77 18.8755 134.293 19.129 134.841 19.3303C135.388 19.5234 135.891 19.6804 136.35 19.8011L138.861 20.4773C139.505 20.6463 140.221 20.8797 141.01 21.1776C141.807 21.4754 142.568 21.8819 143.292 22.397C144.025 22.9041 144.628 23.5561 145.103 24.353C145.578 25.1499 145.816 26.1278 145.816 27.2869C145.816 28.6231 145.466 29.8305 144.765 30.9091C144.073 31.9877 143.059 32.8449 141.723 33.4808C140.394 34.1167 138.781 34.4347 136.881 34.4347C135.11 34.4347 133.577 34.1489 132.281 33.5774C130.993 33.0059 129.979 32.209 129.238 31.1868C128.506 30.1645 128.091 28.9773 127.995 27.625H131.086C131.166 28.5587 131.48 29.3314 132.027 29.9432C132.583 30.5469 133.283 30.9976 134.128 31.2955C134.981 31.5852 135.899 31.7301 136.881 31.7301C138.024 31.7301 139.05 31.545 139.96 31.1747C140.869 30.7964 141.59 30.2732 142.121 29.6051C142.652 28.929 142.918 28.1402 142.918 27.2386C142.918 26.4176 142.689 25.7495 142.23 25.2344C141.771 24.7192 141.167 24.3007 140.419 23.9787C139.67 23.6567 138.861 23.375 137.992 23.1335L134.949 22.2642C133.017 21.7088 131.488 20.916 130.361 19.8857C129.234 18.8553 128.671 17.5071 128.671 15.8409C128.671 14.4564 129.045 13.2491 129.794 12.2188C130.55 11.1804 131.564 10.3755 132.836 9.80398C134.116 9.22443 135.545 8.93466 137.122 8.93466C138.716 8.93466 140.133 9.22041 141.372 9.7919C142.612 10.3553 143.594 11.1281 144.318 12.1101C145.051 13.0921 145.437 14.2069 145.478 15.4545H142.58ZM146.667 11.929V9.27273H165.212V11.929H157.436V34H154.442V11.929H146.667ZM186.948 21.6364C186.948 24.2443 186.477 26.4981 185.535 28.3977C184.593 30.2973 183.301 31.7623 181.659 32.7926C180.017 33.8229 178.142 34.3381 176.033 34.3381C173.924 34.3381 172.048 33.8229 170.406 32.7926C168.764 31.7623 167.472 30.2973 166.531 28.3977C165.589 26.4981 165.118 24.2443 165.118 21.6364C165.118 19.0284 165.589 16.7746 166.531 14.875C167.472 12.9754 168.764 11.5104 170.406 10.4801C172.048 9.44981 173.924 8.93466 176.033 8.93466C178.142 8.93466 180.017 9.44981 181.659 10.4801C183.301 11.5104 184.593 12.9754 185.535 14.875C186.477 16.7746 186.948 19.0284 186.948 21.6364ZM184.05 21.6364C184.05 19.4953 183.692 17.6882 182.975 16.2152C182.267 14.7422 181.305 13.6274 180.09 12.8707C178.882 12.1141 177.53 11.7358 176.033 11.7358C174.536 11.7358 173.179 12.1141 171.964 12.8707C170.757 13.6274 169.795 14.7422 169.078 16.2152C168.37 17.6882 168.016 19.4953 168.016 21.6364C168.016 23.7775 168.37 25.5845 169.078 27.0575C169.795 28.5305 170.757 29.6454 171.964 30.402C173.179 31.1586 174.536 31.5369 176.033 31.5369C177.53 31.5369 178.882 31.1586 180.09 30.402C181.305 29.6454 182.267 28.5305 182.975 27.0575C183.692 25.5845 184.05 23.7775 184.05 21.6364ZM189.262 34V9.27273H197.617C199.549 9.27273 201.135 9.60275 202.375 10.2628C203.614 10.9148 204.532 11.8123 205.127 12.9553C205.723 14.0982 206.021 15.3982 206.021 16.8551C206.021 18.312 205.723 19.6039 205.127 20.7308C204.532 21.8577 203.618 22.7431 202.387 23.3871C201.155 24.023 199.581 24.3409 197.666 24.3409H190.904V21.6364H197.569C198.889 21.6364 199.952 21.4432 200.757 21.0568C201.57 20.6705 202.157 20.1231 202.519 19.4148C202.89 18.6984 203.075 17.8452 203.075 16.8551C203.075 15.8651 202.89 14.9998 202.519 14.2592C202.149 13.5187 201.558 12.9472 200.745 12.5447C199.932 12.1342 198.857 11.929 197.521 11.929H192.257V34H189.262ZM200.902 22.892L206.987 34H203.51L197.521 22.892H200.902ZM208.29 34V9.27273H223.214V11.929H211.285V20.2841H222.441V22.9403H211.285V31.3438H223.407V34H208.29Z" fill="#2563EB"/>
<g clip-path="url(#clip1_284_2)">
<path d="M244.209 21.2083C245.858 21.6503 247.675 20.226 248.265 18.0246C248.854 15.8232 247.993 13.6814 246.344 13.2394C244.694 12.7974 242.878 14.2218 242.288 16.4232C241.698 18.6246 242.559 20.7663 244.209 21.2083Z" fill="#2563EB"/>
<path d="M251.651 24.9322C253.071 18.0784 252.662 13.4443 251.751 10.3986C251.221 8.63814 250.528 7.42326 249.944 6.63246C249.716 6.32121 249.464 6.02871 249.189 5.75775C249.11 5.67902 249.028 5.60352 248.943 5.53147C248.811 5.40892 248.652 5.31948 248.479 5.27051C248.292 5.22332 248.096 5.2245 247.91 5.27395C247.8 5.29737 247.692 5.32526 247.584 5.35753C247.211 5.4691 246.847 5.60692 246.494 5.76994C245.592 6.18603 244.384 6.91915 243.046 8.19843C240.736 10.4024 238.071 14.1959 235.905 20.7109L231.948 23.5496L231.937 23.5574C230.994 24.2512 230.315 25.2455 230.012 26.3767L228.251 32.9471C228.195 33.1561 228.206 33.3775 228.283 33.5799C228.36 33.7822 228.499 33.9553 228.679 34.0746C228.86 34.1938 229.073 34.2532 229.29 34.2444C229.506 34.2355 229.714 34.1588 229.884 34.0252L232.926 31.6374C233.375 31.2837 233.976 31.0647 234.729 30.9032C235.213 30.8023 235.656 30.7417 236.124 30.6771L236.563 30.6154C237.729 31.8417 239.312 32.7079 241.005 33.1616C242.699 33.6154 244.503 33.6567 246.126 33.1777C246.243 33.2717 246.358 33.3617 246.472 33.4477C246.848 33.7407 247.202 34.0148 247.57 34.3442C248.141 34.8601 248.552 35.3503 248.764 35.8812L250.205 39.4701C250.285 39.6709 250.427 39.8413 250.61 39.9571C250.793 40.073 251.008 40.1283 251.224 40.1153C251.44 40.1024 251.646 40.0217 251.814 39.8849C251.982 39.748 252.102 39.5619 252.158 39.3528L253.918 32.7825C254.222 31.6513 254.131 30.4507 253.661 29.3781L251.651 24.9322ZM250.872 28.2145L250.843 28.3241C250.38 30.0494 249.431 31.3302 248.206 32.1871C248.463 32.3925 248.718 32.602 248.946 32.8104C249.618 33.4111 250.295 34.1539 250.679 35.1109L250.966 35.8307L251.926 32.2487C252.108 31.5719 252.054 30.8536 251.774 30.2114L250.872 28.2145ZM235.257 28.7173C234.624 27.3629 234.443 25.7789 234.905 24.0536L234.934 23.946L233.155 25.2204C232.591 25.637 232.185 26.233 232.004 26.9105L231.044 30.4925L231.653 30.015C232.464 29.3782 233.422 29.0712 234.304 28.8869C234.605 28.8224 234.932 28.7669 235.257 28.7173ZM247.924 7.41297C248.03 7.52682 248.151 7.67528 248.287 7.85835C248.732 8.46019 249.316 9.46011 249.775 10.9902C250.688 14.0534 251.126 19.2974 248.85 27.7903C248.392 29.4996 247.315 30.5391 245.961 31.0582C244.676 31.5529 243.095 31.5863 241.539 31.1694C239.983 30.7525 238.631 29.9333 237.765 28.8621C236.851 27.733 236.439 26.2967 236.897 24.5874C239.129 16.2559 242.126 11.9257 244.47 9.68827C245.643 8.57181 246.661 7.96508 247.358 7.6436C247.579 7.54192 247.767 7.46637 247.924 7.41297Z" fill="#2563EB"/>
<path d="M243.758 34.6703C242.752 34.5994 241.732 34.4241 240.738 34.1577C239.743 33.8914 238.772 33.5328 237.865 33.0913L239.247 36.5341C239.306 36.6827 239.4 36.8153 239.52 36.9215C239.639 37.0278 239.782 37.1046 239.937 37.1461C240.091 37.1875 240.254 37.1924 240.41 37.1603C240.567 37.1282 240.715 37.06 240.84 36.9612L243.758 34.6703Z" fill="#2563EB"/>
</g>
</g>
<defs>
<clipPath id="clip0_284_2">
<rect width="259" height="44" fill="white"/>
</clipPath>
<clipPath id="clip1_284_2">
<rect width="33" height="33" fill="white" transform="translate(232.541 1) rotate(15)"/>
</clipPath>
</defs>
</svg>
